<svg xmlns="http://www.w3.org/2000/svg" version="1.1" xmlns:xlink="http://www.w3.org/1999/xlink" xmlns:svgjs="http://svgjs.dev/svgjs" width="2000" height="1500" viewBox="0 0 2000 1500"><rect width="2000" height="1500" fill="#293040"></rect><g transform="matrix(0.44603033006244425,0,0,0.44603033006244425,552.5802701748828,250)"><svg viewBox="0 0 321 360" data-background-color="#293040" preserveAspectRatio="xMidYMid meet" height="2242" width="2000" xmlns="http://www.w3.org/2000/svg" xmlns:xlink="http://www.w3.org/1999/xlink"><g id="tight-bounds" transform="matrix(1,0,0,1,0.49996299999997973,0)"><svg viewBox="0 0 320 360" height="360" width="320"><g><svg></svg></g><g><svg viewBox="0 0 320 360" height="360" width="320"><g><path transform="translate(-29.57346,-9.38389) scale(3.79147,3.79147)" d="M50 13.6c19.1 0 34.8 14.8 36.3 33.5h5.9c-0.3-4.7-1.4-9.2-3.2-13.5-2.1-5-5.2-9.6-9.1-13.4-3.9-3.9-8.4-6.9-13.4-9.1-5.3-2.2-10.8-3.4-16.5-3.4-5.7 0-11.2 1.1-16.5 3.3-5 2.1-9.6 5.2-13.4 9.1-3.9 3.9-6.9 8.4-9.1 13.4-1.8 4.3-2.9 8.9-3.2 13.5h5.9c1.5-18.6 17.2-33.4 36.3-33.4zM50 86.4c-19.1 0-34.8-14.8-36.3-33.5h-5.9c0.3 4.7 1.4 9.2 3.2 13.5 2.1 5 5.2 9.6 9.1 13.4 3.9 3.9 8.4 6.9 13.4 9.1 5.2 2.2 10.7 3.3 16.5 3.3 5.8 0 11.2-1.1 16.5-3.3 5-2.1 9.6-5.2 13.4-9.1 3.9-3.9 6.9-8.4 9.1-13.4 1.8-4.3 2.9-8.9 3.2-13.5h-5.9c-1.5 18.7-17.2 33.5-36.3 33.5z" fill="#ffdc00" fill-rule="nonzero" stroke="none" stroke-width="1" stroke-linecap="butt" stroke-linejoin="miter" stroke-miterlimit="10" stroke-dasharray="" stroke-dashoffset="0" font-family="none" font-weight="none" font-size="none" text-anchor="none" style="mix-blend-mode: normal" data-fill-palette-color="tertiary"></path></g><g transform="matrix(1,0,0,1,56,145.37501812282017)"><svg viewBox="0 0 208 69.24996375435965" height="69.24996375435965" width="208"><g><svg viewBox="0 0 342.20341620766385 113.93064504326333" height="69.24996375435965" width="208"><g transform="matrix(1,0,0,1,134.20341620766382,14.028363312731777)"><svg viewBox="0 0 208 85.87391841779977" height="85.87391841779977" width="208"><g id="textblocktransform"><svg viewBox="0 0 208 85.87391841779977" height="85.87391841779977" width="208" id="textblock"><g><svg viewBox="0 0 208 85.87391841779977" height="85.87391841779977" width="208"><g transform="matrix(1,0,0,1,0,0)"><svg width="208" viewBox="2.8 -32.45 80.9 33.400000000000006" height="85.87391841779977" data-palette-color="#ffdc00"><path d="M2.8 0.6L3.1-1.7Q5.45-2.15 6.28-3.03 7.1-3.9 7.1-6L7.1-6 7.15-27Q7.15-28.6 6.78-29.15 6.4-29.7 5.3-29.7L5.3-29.7 3.2-29.6 3.1-29.8 3.45-32Q4.25-32 4.7-31.95L4.7-31.95 9.4-31.85Q11.65-31.85 15.15-32.3L15.15-32.3 14.95-30.05Q12.9-29.8 12.18-29.23 11.45-28.65 11.35-27.2L11.35-27.2Q11.05-21.35 10.85-14.98 10.65-8.6 10.65-5.6L10.65-5.6Q10.65-3.55 11.1-2.88 11.55-2.2 12.85-2.2L12.85-2.2Q13.7-2.2 15.5-2.35L15.5-2.35 15.6-2.15 15.15 0.15Q14.45 0.15 14.05 0.1L14.05 0.1Q10.55 0 8.6 0L8.6 0Q6.15 0 2.8 0.6L2.8 0.6ZM37.9 0.95L28.3-26 28.05-26Q27.75-22.7 27-13.63 26.25-4.55 26.25-3.75L26.25-3.75Q26.25-2.2 27.8-2.2L27.8-2.2 29.85-2.25 29.95-2.05 29.5 0.2Q28.95 0.15 27.52 0.08 26.1 0 24.65 0L24.65 0Q23.4 0 22.07 0.18 20.75 0.35 20.35 0.4L20.35 0.4 20.6-1.9Q22.2-2.1 22.9-2.93 23.6-3.75 23.8-5.75L23.8-5.75Q24.3-10.45 25.12-18.43 25.95-26.4 25.95-27.35L25.95-27.35Q25.95-28.65 24.92-29.3 23.9-29.95 21.65-30.1L21.65-30.1 21.5-30.35 21.9-32.1Q22.55-32.05 24.45-31.95 26.35-31.85 27.35-31.85L27.35-31.85Q28.25-31.85 29.32-31.93 30.4-32 30.75-32.05L30.75-32.05Q32.75-25.6 34.62-20.08 36.5-14.55 37.7-11.3 38.9-8.05 39.2-7.25L39.2-7.25 39.45-7.25Q40.15-9.1 42.65-16.05 45.15-23 48.1-31.95L48.1-31.95Q48.1-32 49.45-31.9L49.45-31.9 51.4-31.85Q52.35-31.85 54.25-31.98 56.15-32.1 56.8-32.15L56.8-32.15 56.9-31.95 56.65-30.1Q54.5-29.85 53.6-29.23 52.7-28.6 52.7-27.35L52.7-27.35Q52.7-26.25 53.15-19.18 53.6-12.1 54-6.95L54-6.95Q54.25-4.9 54.5-3.93 54.75-2.95 55.2-2.58 55.65-2.2 56.45-2.2L56.45-2.2Q56.9-2.2 57.3-2.25 57.7-2.3 57.85-2.3L57.85-2.3 57.95-2.1 57.5 0.15Q57 0.1 55.62 0.05 54.25 0 52.75 0L52.75 0Q51.4 0 49.72 0.18 48.05 0.35 47.55 0.4L47.55 0.4 47.75-1.9Q49.3-2.1 50-2.7 50.7-3.3 50.7-4.4L50.7-4.4Q50.7-5.45 49.97-14.15 49.25-22.85 49-26L49-26 48.75-26 39.1 0.6 37.9 0.95ZM71.34 0.6Q69.25 0.6 67.5 0.23 65.75-0.15 64.62-0.6 63.5-1.05 63.5-1.1L63.5-1.1 63.25-1.6Q63.3-1.9 63.45-3.1 63.6-4.3 63.72-6.23 63.85-8.15 63.85-10.3L63.85-10.3 66.09-10.55Q66.09-6.8 66.59-5 67.09-3.2 68.45-2.53 69.8-1.85 72.59-1.85L72.59-1.85Q75.75-1.85 77.65-3.33 79.55-4.8 79.55-7.35L79.55-7.35Q79.55-8.85 78.52-10.05 77.5-11.25 76.09-12.1 74.7-12.95 71.95-14.4L71.95-14.4Q69.34-15.75 67.7-16.88 66.05-18 64.92-19.55 63.8-21.1 63.8-23.15L63.8-23.15Q63.8-25.75 65.32-27.88 66.84-30 69.47-31.23 72.09-32.45 75.3-32.45L75.3-32.45Q77.3-32.45 79-32.18 80.7-31.9 81.7-31.6 82.7-31.3 82.95-31.2L82.95-31.2 83.09-30.9Q83.05-30.6 82.84-29.5 82.65-28.4 82.4-26.45 82.15-24.5 82-22.45L82-22.45 80.05-22.25 79.75-22.5Q79.8-22.7 79.84-23.43 79.9-24.15 79.9-25.1L79.9-25.1Q79.9-27.75 78.59-28.75 77.3-29.75 73.95-29.75L73.95-29.75Q71.2-29.75 69.42-28.38 67.65-27 67.65-24.95L67.65-24.95Q67.65-22.95 69.37-21.48 71.09-20 74.45-18.25L74.45-18.25Q77.7-16.6 79.4-15.53 81.09-14.45 82.4-12.85 83.7-11.25 83.7-9.15L83.7-9.15Q83.7-6.35 82.12-4.13 80.55-1.9 77.75-0.65 74.95 0.6 71.34 0.6L71.34 0.6Z" opacity="1" transform="matrix(1,0,0,1,0,0)" fill="#ffdc00" class="wordmark-text-0" data-fill-palette-color="primary" id="text-0"></path></svg></g></svg></g></svg></g></svg></g><g><svg viewBox="0 0 113.93064504326333 113.93064504326333" height="113.93064504326333" width="113.93064504326333"><g><svg xmlns="http://www.w3.org/2000/svg" xmlns:xlink="http://www.w3.org/1999/xlink" version="1.1" x="0" y="0" viewBox="7.5 7.5 85 85" enable-background="new 0 0 100 100" xml:space="preserve" height="113.93064504326333" width="113.93064504326333" class="icon-icon-0" data-fill-palette-color="accent" id="icon-0"></svg></g></svg></g></svg></g></svg></g></svg></g><defs></defs><mask id="a09901be-2890-4423-a7a5-bc772c91e21c"><g id="SvgjsG2440"><svg viewBox="0 0 320 360" height="360" width="320"><g><svg></svg></g><g><svg viewBox="0 0 320 360" height="360" width="320"><g><path transform="translate(-29.57346,-9.38389) scale(3.79147,3.79147)" d="M50 13.6c19.1 0 34.8 14.8 36.3 33.5h5.9c-0.3-4.7-1.4-9.2-3.2-13.5-2.1-5-5.2-9.6-9.1-13.4-3.9-3.9-8.4-6.9-13.4-9.1-5.3-2.2-10.8-3.4-16.5-3.4-5.7 0-11.2 1.1-16.5 3.3-5 2.1-9.6 5.2-13.4 9.1-3.9 3.9-6.9 8.4-9.1 13.4-1.8 4.3-2.9 8.9-3.2 13.5h5.9c1.5-18.6 17.2-33.4 36.3-33.4zM50 86.4c-19.1 0-34.8-14.8-36.3-33.5h-5.9c0.3 4.7 1.4 9.2 3.2 13.5 2.1 5 5.2 9.6 9.1 13.4 3.9 3.9 8.4 6.9 13.4 9.1 5.2 2.2 10.7 3.3 16.5 3.3 5.8 0 11.2-1.1 16.5-3.3 5-2.1 9.6-5.2 13.4-9.1 3.9-3.9 6.9-8.4 9.1-13.4 1.8-4.3 2.9-8.9 3.2-13.5h-5.9c-1.5 18.7-17.2 33.5-36.3 33.5z" fill="black" fill-rule="nonzero" stroke="none" stroke-width="1" stroke-linecap="butt" stroke-linejoin="miter" stroke-miterlimit="10" stroke-dasharray="" stroke-dashoffset="0" font-family="none" font-weight="none" font-size="none" text-anchor="none" style="mix-blend-mode: normal"></path></g><g transform="matrix(1,0,0,1,56,145.37501812282017)"><svg viewBox="0 0 208 69.24996375435965" height="69.24996375435965" width="208"><g><svg viewBox="0 0 342.20341620766385 113.93064504326333" height="69.24996375435965" width="208"><g transform="matrix(1,0,0,1,134.20341620766382,14.028363312731777)"><svg viewBox="0 0 208 85.87391841779977" height="85.87391841779977" width="208"><g id="SvgjsG2439"><svg viewBox="0 0 208 85.87391841779977" height="85.87391841779977" width="208" id="SvgjsSvg2438"><g><svg viewBox="0 0 208 85.87391841779977" height="85.87391841779977" width="208"><g transform="matrix(1,0,0,1,0,0)"><svg width="208" viewBox="2.8 -32.45 80.9 33.400000000000006" height="85.87391841779977" data-palette-color="#ffdc00"><path d="M2.8 0.6L3.1-1.7Q5.45-2.15 6.28-3.03 7.1-3.9 7.1-6L7.1-6 7.15-27Q7.15-28.6 6.78-29.15 6.4-29.7 5.3-29.7L5.3-29.7 3.2-29.6 3.1-29.8 3.45-32Q4.25-32 4.7-31.95L4.7-31.95 9.4-31.85Q11.65-31.85 15.15-32.3L15.15-32.3 14.95-30.05Q12.9-29.8 12.18-29.23 11.45-28.65 11.35-27.2L11.35-27.2Q11.05-21.35 10.85-14.98 10.65-8.6 10.65-5.6L10.65-5.6Q10.65-3.55 11.1-2.88 11.55-2.2 12.85-2.2L12.85-2.2Q13.7-2.2 15.5-2.35L15.5-2.35 15.6-2.15 15.15 0.15Q14.45 0.15 14.05 0.1L14.05 0.1Q10.55 0 8.6 0L8.6 0Q6.15 0 2.8 0.6L2.8 0.6ZM37.9 0.95L28.3-26 28.05-26Q27.75-22.7 27-13.63 26.25-4.55 26.25-3.75L26.25-3.75Q26.25-2.2 27.8-2.2L27.8-2.2 29.85-2.25 29.95-2.05 29.5 0.2Q28.95 0.15 27.52 0.08 26.1 0 24.65 0L24.65 0Q23.4 0 22.07 0.18 20.75 0.35 20.35 0.4L20.35 0.4 20.6-1.9Q22.2-2.1 22.9-2.93 23.6-3.75 23.8-5.75L23.8-5.75Q24.3-10.45 25.12-18.43 25.95-26.4 25.95-27.35L25.95-27.35Q25.95-28.65 24.92-29.3 23.9-29.95 21.65-30.1L21.65-30.1 21.5-30.35 21.9-32.1Q22.55-32.05 24.45-31.95 26.35-31.85 27.35-31.85L27.35-31.85Q28.25-31.85 29.32-31.93 30.4-32 30.75-32.05L30.75-32.05Q32.75-25.6 34.62-20.08 36.5-14.55 37.7-11.3 38.9-8.05 39.2-7.25L39.2-7.25 39.45-7.25Q40.15-9.1 42.65-16.05 45.15-23 48.1-31.95L48.1-31.95Q48.1-32 49.45-31.9L49.45-31.9 51.4-31.85Q52.35-31.85 54.25-31.98 56.15-32.1 56.8-32.15L56.8-32.15 56.9-31.95 56.65-30.1Q54.5-29.85 53.6-29.23 52.7-28.6 52.7-27.35L52.7-27.35Q52.7-26.25 53.15-19.18 53.6-12.1 54-6.95L54-6.95Q54.25-4.9 54.5-3.93 54.75-2.95 55.2-2.58 55.65-2.2 56.45-2.2L56.45-2.2Q56.9-2.2 57.3-2.25 57.7-2.3 57.85-2.3L57.85-2.3 57.95-2.1 57.5 0.15Q57 0.1 55.62 0.05 54.25 0 52.75 0L52.75 0Q51.4 0 49.72 0.18 48.05 0.35 47.55 0.4L47.55 0.4 47.75-1.9Q49.3-2.1 50-2.7 50.7-3.3 50.7-4.4L50.7-4.4Q50.7-5.45 49.97-14.15 49.25-22.85 49-26L49-26 48.75-26 39.1 0.6 37.9 0.95ZM71.34 0.6Q69.25 0.6 67.5 0.23 65.75-0.15 64.62-0.6 63.5-1.05 63.5-1.1L63.5-1.1 63.25-1.6Q63.3-1.9 63.45-3.1 63.6-4.3 63.72-6.23 63.85-8.15 63.85-10.3L63.85-10.3 66.09-10.55Q66.09-6.8 66.59-5 67.09-3.2 68.45-2.53 69.8-1.85 72.59-1.85L72.59-1.85Q75.75-1.85 77.65-3.33 79.55-4.8 79.55-7.35L79.55-7.35Q79.55-8.85 78.52-10.05 77.5-11.25 76.09-12.1 74.7-12.95 71.95-14.4L71.95-14.4Q69.34-15.75 67.7-16.88 66.05-18 64.92-19.55 63.8-21.1 63.8-23.15L63.8-23.15Q63.8-25.75 65.32-27.88 66.84-30 69.47-31.23 72.09-32.45 75.3-32.45L75.3-32.45Q77.3-32.45 79-32.18 80.7-31.9 81.7-31.6 82.7-31.3 82.95-31.2L82.95-31.2 83.09-30.9Q83.05-30.6 82.84-29.5 82.65-28.4 82.4-26.45 82.15-24.5 82-22.45L82-22.45 80.05-22.25 79.75-22.5Q79.8-22.7 79.84-23.43 79.9-24.15 79.9-25.1L79.9-25.1Q79.9-27.75 78.59-28.75 77.3-29.75 73.95-29.75L73.95-29.75Q71.2-29.75 69.42-28.38 67.65-27 67.65-24.95L67.65-24.95Q67.65-22.95 69.37-21.48 71.09-20 74.45-18.25L74.45-18.25Q77.7-16.6 79.4-15.53 81.09-14.45 82.4-12.85 83.7-11.25 83.7-9.15L83.7-9.15Q83.7-6.35 82.12-4.13 80.55-1.9 77.75-0.65 74.95 0.6 71.34 0.6L71.34 0.6Z" opacity="1" transform="matrix(1,0,0,1,0,0)" fill="black" class="wordmark-text-0" id="SvgjsPath2437"></path></svg></g></svg></g></svg></g></svg></g><g><svg viewBox="0 0 113.93064504326333 113.93064504326333" height="113.93064504326333" width="113.93064504326333"><g><svg xmlns="http://www.w3.org/2000/svg" xmlns:xlink="http://www.w3.org/1999/xlink" version="1.1" x="0" y="0" viewBox="7.5 7.5 85 85" enable-background="new 0 0 100 100" xml:space="preserve" height="113.93064504326333" width="113.93064504326333" class="icon-icon-0" data-fill-palette-color="accent" id="SvgjsSvg2436"><path d="M91.63 7.5H39.52C39.41 7.5 39.3 7.52 39.2 7.56H39.19C39.08 7.61 38.98 7.68 38.9 7.76L7.75 38.91S7.75 38.92 7.74 38.92C7.71 38.96 7.67 39 7.65 39.04 7.63 39.06 7.62 39.09 7.61 39.11A0.3 0.3 0 0 0 7.57 39.19C7.55 39.22 7.54 39.25 7.54 39.28 7.53 39.3 7.52 39.33 7.52 39.35 7.5 39.41 7.5 39.46 7.5 39.52V91.63C7.5 92.11 7.89 92.5 8.37 92.5H60.52C60.571 92.49 60.611 92.49 60.651 92.48 60.68 92.48 60.711 92.459 60.741 92.459 60.761 92.449 60.791 92.439 60.81 92.439 60.84 92.418 60.88 92.399 60.911 92.378 60.931 92.368 60.941 92.368 60.961 92.358L61.101 92.248 92.24 61.11C92.4 60.95 92.5 60.73 92.5 60.48V8.37A0.87 0.87 0 0 0 91.63 7.5M39.88 9.24H55.64L26.22 38.65H10.46zM59.61 90.77H9.24V40.39H59.61zM60.12 38.65H44.36L73.78 9.24H89.54z" fill="white"></path></svg></g></svg></g></svg></g></svg></g></svg></g><defs><mask></mask></defs></svg><rect width="320" height="360" fill="black" stroke="none" visibility="hidden"></rect></g></mask><linearGradient x1="0" x2="1" y1="0.5" y2="0.5" id="042f5723-15ee-4e5f-817a-6c3b60484f31"><stop stop-color="#fff72e" offset="0"></stop><stop stop-color="#deae29" offset="1"></stop></linearGradient><rect width="320.000074" height="360" fill="url(#042f5723-15ee-4e5f-817a-6c3b60484f31)" mask="url(#a09901be-2890-4423-a7a5-bc772c91e21c)" data-fill-palette-color="accent"></rect></svg><rect width="320" height="360" fill="none" stroke="none" visibility="hidden"></rect></g></svg></g></svg>