<svg xmlns="http://www.w3.org/2000/svg" version="1.1" xmlns:xlink="http://www.w3.org/1999/xlink" xmlns:svgjs="http://svgjs.dev/svgjs" width="128" height="128" viewBox="0 0 128 128"><g transform="matrix(0.4517543859649123,0,0,0.4517543859649123,34.85826501364522,12.5)"><svg viewBox="0 0 126 225" data-background-color="#293040" preserveAspectRatio="xMidYMid meet" height="228" width="128" xmlns="http://www.w3.org/2000/svg" xmlns:xlink="http://www.w3.org/1999/xlink"><g id="tight-bounds" transform="matrix(1,0,0,1,0.5,0)"><svg viewBox="0 0 125 225" height="225" width="125"><g><svg></svg></g><g><svg viewBox="0 0 125 225" height="225" width="125"><g><path transform="translate(-11.55213,38.52192) scale(1.48104,1.48104)" d="M50 13.6c19.1 0 34.8 14.8 36.3 33.5h5.9c-0.3-4.7-1.4-9.2-3.2-13.5-2.1-5-5.2-9.6-9.1-13.4-3.9-3.9-8.4-6.9-13.4-9.1-5.3-2.2-10.8-3.4-16.5-3.4-5.7 0-11.2 1.1-16.5 3.3-5 2.1-9.6 5.2-13.4 9.1-3.9 3.9-6.9 8.4-9.1 13.4-1.8 4.3-2.9 8.9-3.2 13.5h5.9c1.5-18.6 17.2-33.4 36.3-33.4zM50 86.4c-19.1 0-34.8-14.8-36.3-33.5h-5.9c0.3 4.7 1.4 9.2 3.2 13.5 2.1 5 5.2 9.6 9.1 13.4 3.9 3.9 8.4 6.9 13.4 9.1 5.2 2.2 10.7 3.3 16.5 3.3 5.8 0 11.2-1.1 16.5-3.3 5-2.1 9.6-5.2 13.4-9.1 3.9-3.9 6.9-8.4 9.1-13.4 1.8-4.3 2.9-8.9 3.2-13.5h-5.9c-1.5 18.7-17.2 33.5-36.3 33.5z" fill="#000000" fill-rule="nonzero" stroke="none" stroke-width="1" stroke-linecap="butt" stroke-linejoin="miter" stroke-miterlimit="10" stroke-dasharray="" stroke-dashoffset="0" font-family="none" font-weight="none" font-size="none" text-anchor="none" style="mix-blend-mode: normal" data-fill-palette-color="tertiary"></path></g><g transform="matrix(1,0,0,1,46.984337499999995,96.9843375)"><svg viewBox="0 0 31.031325000000002 31.031325000000002" height="31.031325000000002" width="31.031325000000002"><g><svg viewBox="0 0 31.031325000000002 31.031325000000002" height="31.031325000000002" width="31.031325000000002"><g><svg viewBox="0 0 31.031325000000002 31.031325000000002" height="31.031325000000002" width="31.031325000000002"><g id="textblocktransform"><svg viewBox="0 0 31.031325000000002 31.031325000000002" height="31.031325000000002" width="31.031325000000002" id="textblock"><g><svg viewBox="0 0 31.031325000000002 31.031325000000002" height="31.031325000000002" width="31.031325000000002"><g><svg viewBox="0 0 31.031325000000002 31.031325000000002" height="31.031325000000002" width="31.031325000000002"><g><svg xmlns="http://www.w3.org/2000/svg" xmlns:xlink="http://www.w3.org/1999/xlink" version="1.1" x="0" y="0" viewBox="7.5 7.5 85 85" enable-background="new 0 0 100 100" xml:space="preserve" height="31.031325000000002" width="31.031325000000002" class="icon-icon-0" data-fill-palette-color="accent" id="icon-0"></svg></g></svg></g></svg></g></svg></g></svg></g></svg></g></svg></g></svg></g><defs></defs><mask id="7134ad8e-f03c-4140-9cb7-fbc9985be584"><g id="SvgjsG1919"><svg viewBox="0 0 125 225" height="225" width="125"><g><svg></svg></g><g><svg viewBox="0 0 125 225" height="225" width="125"><g><path transform="translate(-11.55213,38.52192) scale(1.48104,1.48104)" d="M50 13.6c19.1 0 34.8 14.8 36.3 33.5h5.9c-0.3-4.7-1.4-9.2-3.2-13.5-2.1-5-5.2-9.6-9.1-13.4-3.9-3.9-8.4-6.9-13.4-9.1-5.3-2.2-10.8-3.4-16.5-3.4-5.7 0-11.2 1.1-16.5 3.3-5 2.1-9.6 5.2-13.4 9.1-3.9 3.9-6.9 8.4-9.1 13.4-1.8 4.3-2.9 8.9-3.2 13.5h5.9c1.5-18.6 17.2-33.4 36.3-33.4zM50 86.4c-19.1 0-34.8-14.8-36.3-33.5h-5.9c0.3 4.7 1.4 9.2 3.2 13.5 2.1 5 5.2 9.6 9.1 13.4 3.9 3.9 8.4 6.9 13.4 9.1 5.2 2.2 10.7 3.3 16.5 3.3 5.8 0 11.2-1.1 16.5-3.3 5-2.1 9.6-5.2 13.4-9.1 3.9-3.9 6.9-8.4 9.1-13.4 1.8-4.3 2.9-8.9 3.2-13.5h-5.9c-1.5 18.7-17.2 33.5-36.3 33.5z" fill="black" fill-rule="nonzero" stroke="none" stroke-width="1" stroke-linecap="butt" stroke-linejoin="miter" stroke-miterlimit="10" stroke-dasharray="" stroke-dashoffset="0" font-family="none" font-weight="none" font-size="none" text-anchor="none" style="mix-blend-mode: normal"></path></g><g transform="matrix(1,0,0,1,46.984337499999995,96.9843375)"><svg viewBox="0 0 31.031325000000002 31.031325000000002" height="31.031325000000002" width="31.031325000000002"><g><svg viewBox="0 0 31.031325000000002 31.031325000000002" height="31.031325000000002" width="31.031325000000002"><g><svg viewBox="0 0 31.031325000000002 31.031325000000002" height="31.031325000000002" width="31.031325000000002"><g id="SvgjsG1918"><svg viewBox="0 0 31.031325000000002 31.031325000000002" height="31.031325000000002" width="31.031325000000002" id="SvgjsSvg1917"><g><svg viewBox="0 0 31.031325000000002 31.031325000000002" height="31.031325000000002" width="31.031325000000002"><g><svg viewBox="0 0 31.031325000000002 31.031325000000002" height="31.031325000000002" width="31.031325000000002"><g><svg xmlns="http://www.w3.org/2000/svg" xmlns:xlink="http://www.w3.org/1999/xlink" version="1.1" x="0" y="0" viewBox="7.5 7.5 85 85" enable-background="new 0 0 100 100" xml:space="preserve" height="31.031325000000002" width="31.031325000000002" class="icon-icon-0" data-fill-palette-color="accent" id="SvgjsSvg1916"><path d="M91.63 7.5H39.52C39.41 7.5 39.3 7.52 39.2 7.56H39.19C39.08 7.61 38.98 7.68 38.9 7.76L7.75 38.91S7.75 38.92 7.74 38.92C7.71 38.96 7.67 39 7.65 39.04 7.63 39.06 7.62 39.09 7.61 39.11A0.3 0.3 0 0 0 7.57 39.19C7.55 39.22 7.54 39.25 7.54 39.28 7.53 39.3 7.52 39.33 7.52 39.35 7.5 39.41 7.5 39.46 7.5 39.52V91.63C7.5 92.11 7.89 92.5 8.37 92.5H60.52C60.571 92.49 60.611 92.49 60.651 92.48 60.68 92.48 60.711 92.459 60.741 92.459 60.761 92.449 60.791 92.439 60.81 92.439 60.84 92.418 60.88 92.399 60.911 92.378 60.931 92.368 60.941 92.368 60.961 92.358L61.101 92.248 92.24 61.11C92.4 60.95 92.5 60.73 92.5 60.48V8.37A0.87 0.87 0 0 0 91.63 7.5M39.88 9.24H55.64L26.22 38.65H10.46zM59.61 90.77H9.24V40.39H59.61zM60.12 38.65H44.36L73.78 9.24H89.54z" fill="white"></path></svg></g></svg></g></svg></g></svg></g></svg></g></svg></g></svg></g></svg></g><defs><mask></mask></defs></svg><rect width="125" height="225" fill="black" stroke="none" visibility="hidden"></rect></g></mask><linearGradient x1="0" x2="1" y1="0.5" y2="0.5" id="ddc7452d-a5a9-472d-9b24-229e0d3a78bf"><stop stop-color="#fff72e" offset="0"></stop><stop stop-color="#deae29" offset="1"></stop></linearGradient><rect width="125.000018" height="225" fill="#000000" mask="url(#7134ad8e-f03c-4140-9cb7-fbc9985be584)" data-fill-palette-color="accent"></rect></svg><rect width="125" height="225" fill="none" stroke="none" visibility="hidden"></rect></g></svg></g></svg>